<svg 
xmlns="http://www.w3.org/2000/svg" 
xmlns:xlink="http://www.w3.org/1999/xlink" 
version="1.1" x="0px" y="0px" 
viewBox="0 0 100 125" 
style="fill:#51ff00"
xml:space="preserve">
<path d="M84.692,29.882L70.49,21.684l-6.327,3.653V18.2L49.964,10l-14.201,8.2v7.096l-6.255-3.611l-14.2,8.198v16.396l6.576,3.798  l-6.576,3.797v16.397l14.2,8.196l6.255-3.611v6.945L49.963,90l14.203-8.198v-6.985l6.324,3.651l14.202-8.197V53.873l-6.577-3.797  l6.577-3.797V29.882z M82.567,45.052l-11.015,6.359l0.003-12.716l11.012-6.358V45.052z M82.567,69.044l-11.015,6.357l0.003-12.717  l11.012-6.357V69.044z M62.04,80.575l-11.015,6.358l0.002-12.718l11.013-6.357V80.575z M29.508,24.139l11.013,6.357l-11.012,6.358  l-11.014-6.358L29.508,24.139z M49.964,12.454l11.012,6.359L49.965,25.17l-11.014-6.357L49.964,12.454z M49.965,72.376  l-11.014-6.358l11.012-6.357l11.015,6.357L49.965,72.376z M41.583,32.337v12.716L30.57,51.412l0.001-12.717L41.583,32.337z   M56.293,53.873v6.987l-6.33-3.653l-6.255,3.611v-6.944l-6.576-3.797l6.576-3.798v-7.096l6.256,3.612l6.329-3.655v7.138l6.574,3.797  L56.293,53.873z M70.493,36.854L59.48,30.496l11.01-6.357l11.015,6.357L70.493,36.854z M62.038,26.565l-5.745,3.317v6.804  l-5.267,3.041l0.001-12.716l11.011-6.357V26.565z M29.508,54.479l5.499-3.175l5.514,3.184l-11.012,6.356l-11.014-6.356l5.514-3.184  L29.508,54.479z M30.571,62.685l11.012-6.356v5.717l-5.82,3.359v7l-5.192,2.997L30.571,62.685z M70.493,60.844L59.48,54.486  l5.512-3.184l5.498,3.175l5.5-3.175l5.515,3.184L70.493,60.844z"/>
</svg>