<svg 
    xmlns="http://www.w3.org/2000/svg" 
    xmlns:xlink="http://www.w3.org/1999/xlink" 
    version="1.1" x="0px" y="0px" viewBox="0 0 64 80" 
    style="fill:#51ff00" 
    xml:space="preserve"><g><g>
    <path d="M10,12.5c-4.2,4.8-6.9,10.9-7.3,17.7h14.9c0.3-2.7,1.4-5.1,3-7.1L10,12.5z"/><path d="M33.8,2.7v14.9c2.7,0.3,5.1,1.4,7.1,3L51.5,10C46.7,5.8,40.6,3.1,33.8,2.7z"/><path d="M54,12.5L43.5,23.1c1.6,2,2.6,4.5,3,7.1h14.9C60.9,23.4,58.2,17.3,54,12.5z"/><path d="M46.5,33.8c-0.3,2.7-1.4,5.1-3,7.1L54,51.5c4.2-4.8,6.9-10.9,7.3-17.7H46.5z"/><path d="M23.1,43.5L12.5,54c4.8,4.2,10.9,6.9,17.7,7.3V46.5C27.5,46.1,25.1,45.1,23.1,43.5z"/><path d="M17.5,33.8H2.7c0.4,6.8,3.1,12.9,7.3,17.7l10.5-10.5C18.9,38.9,17.9,36.5,17.5,33.8z"/><path d="M40.9,43.5c-2,1.6-4.5,2.6-7.1,3v14.9c6.8-0.4,12.9-3.1,17.7-7.3L40.9,43.5z"/><path d="M12.5,10l10.5,10.5c2-1.6,4.5-2.6,7.1-3V2.7C23.4,3.1,17.3,5.8,12.5,10z"/></g><path d="M39.4,36.2c-0.1,3-2.7,4.9-5.4,5.3c0,0,0,0.7,0,1.3c0,0.6-0.5,1.1-1.1,1.1h-1c-0.6,0-1.1-0.5-1.1-1.1v-1.2   c-1.3-0.2-2.4-0.6-3.4-1.2c-1.1-0.7-1.9-1.7-2.5-2.8c-0.3-0.6-1.3-2.5,0-2.5c0.9,0,1.7,0,2.6,0c0.2,0,0.5,0,0.7,0.1   c0.4,0.2,0.4,0.5,0.5,0.9c0.4,2.2,3.4,2.6,5.1,1.8c1.9-0.9,1.1-2.5-0.3-3.4c-3-1.8-7.1-0.7-8.4-4.7c-0.8-2.4,0.4-4.9,2.5-6.2   c0.8-0.5,1.7-0.8,2.7-1v-1.3c0-0.6,0.5-1,1-1h1.1c0.6,0,1,0.5,1,1v1.2c1.3,0.2,2.4,0.6,3.4,1.2c1.3,0.8,2.3,2.1,2.8,3.6   c0.1,0.3,0.2,0.7,0.3,1.1c0,0.9-0.9,0.8-1.6,0.8c-0.6,0-1.2,0-1.8-0.1c-0.5,0-0.7-0.3-0.8-0.8c0,0,0-0.1,0-0.1   c-0.1-0.6-0.5-1.2-1.1-1.6c-1.2-0.7-2.7-0.8-3.9-0.3c-1.9,0.9-1.1,2.5,0.3,3.4c1.7,1,3.8,0.8,5.5,1.6c0.8,0.3,1.5,0.9,2.1,1.6   C39,33.8,39.4,35,39.4,36.2z"/></g></svg>