<svg xmlns="http://www.w3.org/2000/svg" viewBox="0 0 512 640" x="0px" y="0px"><title>weather, cloud, sunny, moon, storm</title><path d="M302,116a15,15,0,0,0,15-15V61a15,15,0,0,0-30,0v40A15,15,0,0,0,302,116Z"/><path d="M497,241H457a15,15,0,0,0,0,30h40a15,15,0,0,0,0-30Z"/><path d="M411.6,161.4a15,15,0,0,0,10.61-4.4l28.28-28.28a15,15,0,0,0-21.21-21.21L401,135.79a15,15,0,0,0,10.6,25.61Z"/><path d="M181.79,157A15,15,0,0,0,203,135.79l-28.28-28.28a15,15,0,0,0-21.21,21.21Z"/><path d="M307.84,266H365a114.35,114.35,0,0,1,50,11.44A115,115,0,0,0,302,141a114.38,114.38,0,0,0-68.15,22.43A145.43,145.43,0,0,1,307.84,266Z"/><path d="M365,296H279.89c.07-1.67.11-3.33.11-5A115,115,0,1,0,50.65,303.22,85,85,0,0,0,85,466H365a85,85,0,0,0,0-170Z"/><text x="0" y="527" fill="#000000" font-size="5px" font-weight="bold" font-family="'Helvetica Neue', Helvetica, Arial-Unicode, Arial, Sans-serif">Created by Yogi Aprelliyanto</text><text x="0" y="532" fill="#000000" font-size="5px" font-weight="bold" font-family="'Helvetica Neue', Helvetica, Arial-Unicode, Arial, Sans-serif">from the Noun Project</text></svg>