<svg xmlns="http://www.w3.org/2000/svg" xmlns:xlink="http://www.w3.org/1999/xlink" version="1.1" x="0px" y="0px" viewBox="0 0 100 125" enable-background="new 0 0 100 100" xml:space="preserve"><path d="M73.66,16.519l-17.299,9.988v7.022l-6.069-3.504l-17.298,9.988v7.36l-6.656-3.843L9.04,53.519v19.975l17.299,9.988  l17.3-9.988v-7.359l6.654,3.843l17.299-9.988v-7.021l6.068,3.504l17.301-9.988V26.507L73.66,16.519z M86.461,27.373l-12.799,7.39  l-12.801-7.39l12.799-7.39L86.461,27.373z M56.361,36.993v7.772l-6.067,3.503l-12.799-7.389l12.798-7.39L56.361,36.993z   M64.592,47.771l-3.719-2.147l3.719-2.147V47.771z M59.361,43.033v-4.308l3.73,2.154L59.361,43.033z M32.995,50.837v7.096  l-6.655,3.842l-12.8-7.39l12.799-7.391L32.995,50.837z M40.638,60.938l-3.424-1.978l3.424-1.978V60.938z M35.995,56.2v-3.631  l3.144,1.815L35.995,56.2z M12.04,56.982l12.8,7.391L24.838,79.15l-12.799-7.39V56.982z M40.638,71.761l-12.8,7.39l0.001-14.777  l6.375-3.681l6.424,3.71V71.761z M35.995,49.105v-5.629l12.799,7.39l-0.001,14.779l-5.154-2.977v-9.15L35.995,49.105z   M64.592,58.256l-12.799,7.39l0.001-14.78l6.078-3.509l6.72,3.879V58.256z M59.361,35.261v-5.29l12.801,7.391L72.16,52.141  l-4.568-2.638v-9.49L59.361,35.261z M75.16,52.141l0.002-14.78l12.799-7.39v14.78L75.16,52.141z"/><text x="0" y="115" fill="#000000" font-size="5px" font-weight="bold" font-family="'Helvetica Neue', Helvetica, Arial-Unicode, Arial, Sans-serif">Created by Pablo Rozenberg</text><text x="0" y="120" fill="#000000" font-size="5px" font-weight="bold" font-family="'Helvetica Neue', Helvetica, Arial-Unicode, Arial, Sans-serif">from the Noun Project</text></svg>