<svg xmlns="http://www.w3.org/2000/svg" xmlns:xlink="http://www.w3.org/1999/xlink" xml:space="preserve" version="1.1" style="shape-rendering:geometricPrecision;text-rendering:geometricPrecision;image-rendering:optimizeQuality;" viewBox="0 0 846.66 1058.325" x="0px" y="0px" fill-rule="evenodd" clip-rule="evenodd"><defs><style type="text/css">
   
    .fil0 {fill:black}
   
  </style></defs><g><path class="fil0" d="M364.84 284.06l116.98 0c37.18,0 67.59,30.41 67.59,67.59l0 123.59c0,25.85 -14.69,48.42 -36.14,59.78l-21.27 205.73c-1.91,18.5 -15.21,33.79 -33.79,33.79l-69.75 0c-18.58,0 -31.88,-15.29 -33.79,-33.79l-21.27 -205.73c-21.45,-11.37 -36.15,-33.93 -36.15,-59.78l0 -123.59c0,-37.18 30.41,-67.59 67.59,-67.59zm270.92 85.9l96.48 0c30.68,0 55.76,25.08 55.76,55.75l0 101.95c0,21.32 -12.12,39.94 -29.81,49.31l-17.55 169.7c-1.57,15.25 -12.54,27.87 -27.87,27.87l-57.53 0c-15.32,0 -26.3,-12.62 -27.87,-27.87l-17.55 -169.7c-17.69,-9.38 -29.82,-27.99 -29.82,-49.31l0 -101.95c0,-30.67 25.09,-55.75 55.76,-55.75zm48.24 -174.81c42.26,0 76.52,34.26 76.52,76.52 0,42.25 -34.26,76.51 -76.52,76.51 -42.25,0 -76.51,-34.26 -76.51,-76.51 0,-42.26 34.26,-76.52 76.51,-76.52zm-569.58 174.81l96.48 0c30.68,0 55.76,25.08 55.76,55.75l0 101.95c0,21.32 -12.12,39.94 -29.81,49.31l-17.55 169.7c-1.57,15.25 -12.55,27.87 -27.87,27.87l-57.53 0c-15.33,0 -26.3,-12.62 -27.87,-27.87l-17.55 -169.7c-17.69,-9.38 -29.82,-27.99 -29.82,-49.31l0 -101.95c0,-30.67 25.08,-55.75 55.76,-55.75zm48.24 -174.81c42.26,0 76.52,34.26 76.52,76.52 0,42.25 -34.26,76.51 -76.52,76.51 -42.26,0 -76.52,-34.26 -76.52,-76.51 0,-42.26 34.26,-76.52 76.52,-76.52zm260.67 -123.02c51.23,0 92.76,41.54 92.76,92.77 0,51.22 -41.53,92.76 -92.76,92.76 -51.23,0 -92.76,-41.54 -92.76,-92.76 0,-51.23 41.53,-92.77 92.76,-92.77z"/></g><text x="0" y="861.66" fill="#000000" font-size="5px" font-weight="bold" font-family="'Helvetica Neue', Helvetica, Arial-Unicode, Arial, Sans-serif">Created by Fahmi</text><text x="0" y="866.66" fill="#000000" font-size="5px" font-weight="bold" font-family="'Helvetica Neue', Helvetica, Arial-Unicode, Arial, Sans-serif">from the Noun Project</text></svg>