<svg xmlns="http://www.w3.org/2000/svg" xmlns:xlink="http://www.w3.org/1999/xlink" version="1.1" x="0px" y="0px" viewBox="0 0 595.3 1052.375" style="enable-background:new 0 0 595.3 841.9;" xml:space="preserve"><g><circle cx="284.9" cy="522.8" r="5.9"/><circle cx="325.7" cy="512.9" r="5.9"/><path d="M345.2,491.4c0,2.5,1.6,4.7,3.8,5.5c0.7,0.3,1.4,0.4,2.1,0.4c3.3,0,5.9-2.7,5.9-5.9c0-1.7-0.7-3.2-1.8-4.3   c-1.1-1-2.5-1.6-4.1-1.6C347.9,485.5,345.2,488.2,345.2,491.4z"/><circle cx="214.2" cy="544.3" r="5.9"/><path d="M94.2,476.1c1.6,0,3.1-0.6,4.1-1.7l-10-5.3c-0.1,0.4-0.1,0.7-0.1,1.1C88.3,473.5,91,476.1,94.2,476.1z"/><path d="M166.4,517.4c2.4,0,4.5-1.5,5.4-3.6l-10.4-5.6c-0.6,0.9-0.9,2-0.9,3.2C160.5,514.7,163.1,517.4,166.4,517.4   z"/><path d="M110.4,488.8c0,3.3,2.7,5.9,5.9,5.9c3.3,0,5.9-2.7,5.9-5.9c0-0.6-0.1-1.2-0.3-1.7l-7.4-4   C112.2,483.9,110.4,486.1,110.4,488.8z"/><path d="M410.9,410.2l-15.4,7l-4.5,2.1l-3.3,1.5l6.2,18.1l-15,6.8l-6.2-18.1l-7.9,3.6l6.2,18.1l-13.1,6l-6.2-18.1   l-7.9,3.6l6.2,18.1l-15,6.8l-6.2-18.1h0l-7.9,3.6l6.2,18.1l-15.5,7.1l-6.2-18.1l-7.9,3.6l6.2,18.1l-13.1,6l-6.2-18.1l-7.9,3.6   l6.2,18.1l-15,6.8l-6.2-18.1l-7.9,3.6l6.2,18.1l-13.4,6.1l-6.2-18.1l-7.9,3.6l6.2,18.1l-10.9,5l-3.8-2l-7.6-22.5h0l-11.1-6   l7.6,22.5l-17.8-9.6l-7.6-22.5l-11.1-6l7.6,22.5l-18.6-10l-7.7-22.5l-11.1-6l7.7,22.5l-17.5-9.4l-7.6-22.5l-11.1-6l7.7,22.5   l-18.6-10l-7.6-22.5l-11.1-6l7.7,22.5l-18-9.6l-7.6-22.5l-9-4.9l-2.1-1.1l0,0L42,396.6L2.9,413.5l224.2,120.3L452,431.3   L410.9,410.2z M42.4,415.1l17.5-7.6l7.1,20.7L42.4,415.1z M397.3,422.6l15.3,7.8l-10.9,5L397.3,422.6z"/><circle cx="266.2" cy="533.8" r="3.5"/><path d="M140,364c11.1,4.9,23.7,7.3,37.2,7.3c6.9,0,14-0.6,21.3-1.9l1.3-0.2c5.7-1,12.6-2.2,18.9-4.8   c-0.1,1.2-0.3,2.5-0.4,3.9c-0.1,1.6-0.3,3.3-0.4,5c-0.1,1.7-0.2,3.5-0.3,5.2c-0.1,1.8-0.2,3.5-0.2,5.3c0,1.7-0.1,3.4-0.1,5.1   c0,1.7,0,3.2,0,4.7c0,1.5,0,2.9,0.1,4.2c0.1,5.1,0.2,8.6,0.2,8.6c0,0.2,0,0.4,0,0.6c0.5,4.7,4.7,8.2,9.4,7.7   c4.7-0.5,8.2-4.7,7.7-9.4l0,0c0,0-0.3-3.4-0.8-8.4c-0.1-1.2-0.2-2.6-0.4-4c-0.1-1.4-0.2-2.9-0.3-4.4c-0.1-1.5-0.2-3.1-0.3-4.7   c-0.1-1.6-0.1-3.2-0.2-4.9c0-1.6,0-3.3,0-4.9c0-1.6,0-3.2,0-4.8c0-0.1,0-0.2,0-0.4c3.4,2,6.8,3.7,9.8,5.2l1,0.5   c14.4,7.1,29,10.7,42.7,10.7c3.3,0,6.6-0.2,9.8-0.6c22.6-3,44-17.1,58.5-38.7c6.8-10.1,21.8-35.9,13.8-56l-0.2-0.5   c-9.2-19.5-38.3-26-50.4-27.9c-25.5-3.9-50.3,2.1-68.1,16.7c-5.9,4.8-11.2,10.8-15.7,17.7c-2.6-11.1-6.9-21-12.8-29.4   c-14.2-20.7-38.5-34.7-66.7-38.4c-13.3-1.7-46-3.8-61.5,13.8l-0.3,0.4c-14.5,18.5-6.6,50.2-2.5,63C98.9,332.6,117.1,354,140,364z    M237,331.1c0.1-0.5,0.3-0.9,0.4-1.4l0.3-1.1c3.3-11.2,10-26.8,22.6-37l0.1,0c13.9-11.5,33.8-16.2,54.5-13   c14.3,2.2,32.6,8.2,37.4,18c3.9,10.2-4.1,27.7-12.2,39.7c-11.6,17.3-29,28.9-46.5,31.2l0,0c-13.1,1.7-27.9-1.2-42.7-8.5l-1.1-0.5   c-2.7-1.3-6.3-3.1-9.5-5.1c3.4-3.3,7.2-6.4,12.3-10.1c14.5-10.5,31.7-17.6,49.8-20.7c4.7-0.8,7.8-5.2,7-9.9c-0.8-4.7-5.2-7.8-9.9-7   c-20.7,3.5-40.4,11.7-57,23.7c-2.1,1.5-4,3-5.8,4.4C237,332.9,237,332,237,331.1z M106,253.2c8.4-9.2,30.1-10,46.3-7.9   c23.3,3,43.3,14.4,54.7,31.1l0,0.1c10.5,15,12.8,33.8,12.8,46.9l0,1.3c0,1.2,0,2.5,0,3.9c0-0.1-0.1-0.1-0.1-0.2l-0.7-1   c-16.9-24.9-43.9-35.2-58.4-40.8c-1-0.4-1.9-0.7-2.8-1.1c-4.4-1.7-9.4,0.5-11.1,4.9c-1.7,4.4,0.5,9.4,4.9,11.1   c0.9,0.4,1.9,0.7,2.9,1.1c13.6,5.2,36.4,14,50.3,34.4l0.7,1c3.2,4.6,5,7.3,6.5,10.5c-4.6,1.9-10.7,2.9-15.2,3.7l-1.3,0.2   c-18.2,3.2-35,1.8-48.6-4.2l0,0c-18.2-7.9-33.3-26-40.4-48.2C101.6,284.6,98.5,263.1,106,253.2z"/><circle cx="236" cy="551.3" r="3.5"/><circle cx="387.6" cy="473.7" r="3.5"/><circle cx="149.8" cy="514.9" r="3.5"/><circle cx="176.3" cy="522.8" r="3.5"/><circle cx="80" cy="478.3" r="3.5"/><circle cx="306.7" cy="521.9" r="3.5"/><circle cx="335.1" cy="498.7" r="3.5"/><circle cx="197.4" cy="532.4" r="3.5"/><path d="M362,375.2c-4.1,4.6-3.7,11.6,0.8,15.7c2.1,1.9,4.8,2.9,7.4,2.9c3.1,0,6.1-1.2,8.3-3.7l48.8-54.3l89-17.4   c5.6,13.7,19.1,23.4,34.8,23.4c20.8,0,37.6-16.9,37.6-37.6s-16.9-37.6-37.6-37.6c-18,0-33.1,12.7-36.8,29.6l-98.6,19.3L362,375.2z    M551.2,288.8c8.5,0,15.4,6.9,15.4,15.4s-6.9,15.4-15.4,15.4c-8.5,0-15.4-6.9-15.4-15.4S542.7,288.8,551.2,288.8z"/><path d="M556.5,396.7c-16.6,0-30.7,10.8-35.7,25.7h-32.2c-6.2,0-11.1,5-11.1,11.1c0,6.2,5,11.1,11.1,11.1h31.7   c4.5,15.7,19,27.3,36.2,27.3c20.8,0,37.6-16.9,37.6-37.6C594.2,413.6,577.3,396.7,556.5,396.7z M556.5,449.7   c-8.5,0-15.4-6.9-15.4-15.4s6.9-15.4,15.4-15.4c8.5,0,15.4,6.9,15.4,15.4S565,449.7,556.5,449.7z"/><path d="M551.2,544.4c-15.7,0-29.2,9.7-34.8,23.4l-89-17.4l-48.8-54.3c-4.1-4.6-11.2-5-15.7-0.8   c-4.6,4.1-5,11.2-0.8,15.7l53.8,59.8l98.6,19.3c3.7,16.9,18.8,29.6,36.8,29.6c20.8,0,37.6-16.9,37.6-37.6   C588.8,561.3,572,544.4,551.2,544.4z M551.2,597.4c-8.5,0-15.4-6.9-15.4-15.4s6.9-15.4,15.4-15.4c8.5,0,15.4,6.9,15.4,15.4   S559.7,597.4,551.2,597.4z"/><path d="M71.4,402.6L71.4,402.6l12.9,6.9l11.1,6l18.6,10l11.1,6l17.5,9.4l11.1,6l18.6,10l11.1,6l17.8,9.6v0h0   l11.1,6l13.2,7.1l4.3-1.9l7.9-3.6l13.4-6.1l7.9-3.6l15-6.8l7.9-3.6l13.1-6l7.9-3.6l15.5-7.1l7.9-3.6h0l15-6.8l7.9-3.6l13.1-6   l7.9-3.6l11.4-5.2l3.6-1.7l7.9-3.6l8.4-3.8h0l49.2-22.4L416,365.2l-11.9,13.2l6.8,3.5l-16.8,7.6l-7.2,8c-4.2,4.7-10.3,7.4-16.6,7.4   c-2.5,0-5-0.4-7.3-1.2l-136.9,62.4L40.7,366.6L99,341.4c-3.4-4.6-6.5-9.5-9.2-14.7L1.2,364.9l50.8,27.3L71.4,402.6z"/><path d="M361.7,350.6c-1,1.5-2.1,3-3.1,4.4l4.6,2.3l11.9-13.2l-7.1-3.7C365.7,344.3,363.6,347.8,361.7,350.6z"/><path d="M452,482.1l-42.6-21.9l-19.9,9.1l13.9,7.2c-0.4,0.8-0.6,1.6-0.6,2.5c0,2.3,1.3,4.2,3.1,5.2l-16.4,7.5   l12,13.4L452,482.1z"/><path d="M349,510.1l-86.7,39.5c-0.3-3-2.8-5.3-5.9-5.3c-3.3,0-5.9,2.7-5.9,5.9c0,1.6,0.6,3,1.6,4l-24.3,11.1   l-42.6-22.8c1-1.1,1.7-2.5,1.7-4.1c0-3.3-2.7-5.9-5.9-5.9c-2.8,0-5.2,2-5.8,4.7l-41.4-22.2c3.2-0.1,5.7-2.7,5.7-5.9   c0-3.3-2.7-5.9-5.9-5.9s-5.9,2.7-5.9,5.9c0,1.1,0.3,2.2,0.9,3.1l-27.7-14.8c0.6-0.6,1-1.5,1-2.5c0-1.9-1.6-3.5-3.5-3.5   c-1.7,0-3.1,1.2-3.4,2.8l-29.6-15.9c1.8-1,3-3,3-5.2c0-3.3-2.7-5.9-5.9-5.9c-3.3,0-5.9,2.7-5.9,5.9c0,0.2,0,0.3,0,0.5l-14.2-7.6   l14.4-6.2c0.5,1.3,1.8,2.2,3.2,2.2c1.9,0,3.5-1.6,3.5-3.5c0-0.5-0.1-1-0.3-1.4l1.3-0.6l-19.3-10.4L2.9,464.2l224.2,120.3   l131.9-60.1l-5.3-5.9C351.5,516,350,513.1,349,510.1z"/><path d="M381.3,484.2c2.1,1.2,4,2.7,5.6,4.5l0.6,0.7c-0.4-2.9-2.9-5.2-5.9-5.2C381.5,484.2,381.4,484.2,381.3,484.2   z"/></g><text x="0" y="856.9" fill="#000000" font-size="5px" font-weight="bold" font-family="'Helvetica Neue', Helvetica, Arial-Unicode, Arial, Sans-serif">Created by Annette Spithoven</text><text x="0" y="861.9" fill="#000000" font-size="5px" font-weight="bold" font-family="'Helvetica Neue', Helvetica, Arial-Unicode, Arial, Sans-serif">from the Noun Project</text></svg>